<svg width="33" height="31" viewBox="0 0 33 31" fill="none" xmlns="http://www.w3.org/2000/svg">
<g clip-path="url(#clip0_3_205)">
<rect width="33" height="31" fill="white"/>
<path d="M21.625 5.51013C21.625 5.21176 21.5064 4.92562 21.2955 4.71464C21.0845 4.50366 20.7983 4.38513 20.5 4.38513C20.2016 4.38513 19.9154 4.50366 19.7045 4.71464C19.4935 4.92562 19.375 5.21176 19.375 5.51013L19.3716 14.5135C19.3716 14.8119 19.4901 15.098 19.7011 15.309C19.9121 15.52 20.1982 15.6385 20.4966 15.6385C20.795 15.6385 21.0811 15.52 21.2921 15.309C21.5031 15.098 21.6216 14.8119 21.6216 14.5135L21.625 5.51013Z" fill="#EC0D0D"/>
<path d="M11.5 15.616C11.5 13.1297 12.5069 10.8797 14.1359 9.25183L15.7266 10.8426C14.7826 11.7866 14.1397 12.9893 13.8792 14.2987C13.6187 15.6081 13.7523 16.9653 14.2632 18.1987C14.7741 19.4321 15.6393 20.4864 16.7493 21.2281C17.8593 21.9698 19.1644 22.3657 20.4994 22.3657C21.8345 22.3657 23.1395 21.9698 24.2496 21.2281C25.3596 20.4864 26.2248 19.4321 26.7357 18.1987C27.2465 16.9653 27.3802 15.6081 27.1197 14.2987C26.8592 12.9893 26.2163 11.7866 25.2723 10.8426L26.8641 9.25183C27.9106 10.2984 28.6829 11.5869 29.1125 13.0032C29.5421 14.4195 29.6158 15.9199 29.327 17.3715C29.0383 18.8231 28.396 20.1811 27.4571 21.3252C26.5182 22.4693 25.3116 23.3641 23.9442 23.9305C22.5768 24.4969 21.0909 24.7174 19.618 24.5723C18.1451 24.4273 16.7306 23.9212 15.5 23.099C14.2694 22.2767 13.2606 21.1637 12.5628 19.8584C11.8651 18.5532 11.5001 17.096 11.5 15.616Z" fill="#EC0D0D"/>
</g>
<defs>
<clipPath id="clip0_3_205">
<rect width="33" height="31" fill="white"/>
</clipPath>
</defs>
</svg>
