<svg id="Layer_1" data-name="Layer 1" xmlns="http://www.w3.org/2000/svg" viewBox="0 0 246.095 69.823"><defs><style>.cls-1{fill:#005c99;}</style></defs><path class="cls-1" d="M.827,69.732V44.483q0-.771.917-.771c.611,0,.918.257.918.771v24.3H13.488q.7,0,.7.881t-.7.881H1.707C1.12,70.54.827,70.272.827,69.732Z" transform="translate(-0.827 -0.938)"/><path class="cls-1" d="M15.91,65.953a3.953,3.953,0,0,1,2.147-3.872A14.5,14.5,0,0,1,24.388,61h1.981v-.99a6.286,6.286,0,0,0-1.156-3.818,4.1,4.1,0,0,0-3.541-1.578,6.561,6.561,0,0,0-2.551.514q-1.23.515-1.266.514a.659.659,0,0,1-.532-.349,1.149,1.149,0,0,1-.239-.642q0-.624,1.523-1.156a9.8,9.8,0,0,1,3.248-.532,5.44,5.44,0,0,1,5.518,3.56,6.713,6.713,0,0,1,2.372-2.55A6.079,6.079,0,0,1,33.067,53a6.855,6.855,0,0,1,4.612,1.779,6.653,6.653,0,0,1,2.049,5.3q0,1.5-.606,1.945a4.665,4.665,0,0,1-2.477.44H28.2v1.542a4.65,4.65,0,0,0,1.621,3.707,6.153,6.153,0,0,0,4.163,1.394,6.083,6.083,0,0,0,2.223-.367,6.784,6.784,0,0,0,1.451-.734,1.6,1.6,0,0,1,.772-.367.729.729,0,0,1,.54.275.884.884,0,0,1,.251.606q0,.808-1.832,1.523a10.385,10.385,0,0,1-3.811.716,7.539,7.539,0,0,1-3.811-.991A6.172,6.172,0,0,1,27.2,67.017a6.91,6.91,0,0,1-2.749,2.826,7.141,7.141,0,0,1-3.44.918,5.45,5.45,0,0,1-3.652-1.23A4.426,4.426,0,0,1,15.91,65.953Zm1.8-.037a2.974,2.974,0,0,0,.973,2.4,3.751,3.751,0,0,0,2.514.826,5.427,5.427,0,0,0,3.578-1.34,3.633,3.633,0,0,0,1.6-2.624V62.466h-1.8q-1.248,0-2.129.056a13.3,13.3,0,0,0-1.853.256,4.587,4.587,0,0,0-1.541.569,3.032,3.032,0,0,0-.955,1.01A2.977,2.977,0,0,0,17.708,65.916Zm10.5-4.954h7.773a3.379,3.379,0,0,0,1.657-.257A1.134,1.134,0,0,0,38,59.714a5.149,5.149,0,0,0-1.382-3.578A4.536,4.536,0,0,0,33.1,54.612a4.747,4.747,0,0,0-3.482,1.413,4.625,4.625,0,0,0-1.418,3.4Z" transform="translate(-0.827 -0.938)"/><path class="cls-1" d="M43.655,69.732V53.952q0-.733.881-.734a.975.975,0,0,1,.623.2.645.645,0,0,1,.257.532v1.871a5.443,5.443,0,0,1,1.964-2.018A5.636,5.636,0,0,1,50.407,53h1.321a.775.775,0,0,1,.569.238.887.887,0,0,1,0,1.211.772.772,0,0,1-.569.239H50.407a4.757,4.757,0,0,0-3.468,1.486,5.238,5.238,0,0,0-1.486,3.872v9.688a.75.75,0,0,1-.275.551.91.91,0,0,1-.642.257.879.879,0,0,1-.624-.238A.749.749,0,0,1,43.655,69.732Z" transform="translate(-0.827 -0.938)"/><path class="cls-1" d="M55.361,69.732V43.2a.7.7,0,0,1,.257-.551.929.929,0,0,1,.624-.22.981.981,0,0,1,.66.22.7.7,0,0,1,.258.551v18.46l9.468-8.3a.6.6,0,0,1,.44-.182,1.078,1.078,0,0,1,.661.219.806.806,0,0,1,.037,1.211l-5.689,4.955,6.606,9.689a.766.766,0,0,1,.11.4.9.9,0,0,1-.275.624.852.852,0,0,1-.642.294.747.747,0,0,1-.624-.367l-6.459-9.469L57.16,63.9v5.834a.748.748,0,0,1-.276.551.908.908,0,0,1-.642.257.883.883,0,0,1-.624-.238A.752.752,0,0,1,55.361,69.732Z" transform="translate(-0.827 -0.938)"/><path class="cls-1" d="M70.518,63.971V59.6A6.3,6.3,0,0,1,72.5,54.942,6.572,6.572,0,0,1,77.271,53a6.49,6.49,0,0,1,4.672,1.908,6.327,6.327,0,0,1,1.971,4.735,4.459,4.459,0,0,1-.238,1.6,1.554,1.554,0,0,1-.75.863,2.975,2.975,0,0,1-.933.311,9.717,9.717,0,0,1-1.189.055H72.317v1.542a4.61,4.61,0,0,0,1.651,3.707,6.37,6.37,0,0,0,4.257,1.394,6.008,6.008,0,0,0,2.234-.367,5.916,5.916,0,0,0,1.392-.734,1.43,1.43,0,0,1,.733-.367.743.743,0,0,1,.575.294.905.905,0,0,1,.252.587q0,.7-1.516,1.468a8.2,8.2,0,0,1-3.743.771,8.029,8.029,0,0,1-5.5-1.872A6.231,6.231,0,0,1,70.518,63.971Zm1.8-3.009h7.817a3.492,3.492,0,0,0,1.651-.257,1.176,1.176,0,0,0,.4-1.064,5.059,5.059,0,0,0-1.395-3.487,4.546,4.546,0,0,0-3.523-1.542,4.807,4.807,0,0,0-3.5,1.432,4.631,4.631,0,0,0-1.449,3.413Z" transform="translate(-0.827 -0.938)"/><path class="cls-1" d="M88.024,69.732V43.2a.7.7,0,0,1,.257-.551.929.929,0,0,1,.624-.22.981.981,0,0,1,.66.22.7.7,0,0,1,.257.551V69.732a.75.75,0,0,1-.275.551.91.91,0,0,1-.642.257.883.883,0,0,1-.624-.238A.749.749,0,0,1,88.024,69.732Z" transform="translate(-0.827 -0.938)"/><path class="cls-1" d="M94.776,64.044V53.988a.7.7,0,0,1,.276-.532.953.953,0,0,1,.642-.238.907.907,0,0,1,.605.238.7.7,0,0,1,.276.532V64.044a4.937,4.937,0,0,0,1.449,3.505,4.71,4.71,0,0,0,6.936,0,4.934,4.934,0,0,0,1.45-3.505V53.952a.644.644,0,0,1,.275-.513.994.994,0,0,1,.643-.221.923.923,0,0,1,.624.221.66.66,0,0,1,.256.513V64.044a6.8,6.8,0,0,1-6.716,6.717,6.4,6.4,0,0,1-4.734-2.019A6.5,6.5,0,0,1,94.776,64.044Z" transform="translate(-0.827 -0.938)"/><path class="cls-1" d="M112.869,69.732V53.952q0-.733.881-.734a.975.975,0,0,1,.623.2.645.645,0,0,1,.257.532v1.835a5.269,5.269,0,0,1,1.909-1.982A5.544,5.544,0,0,1,119.548,53a6.256,6.256,0,0,1,4.624,1.982,6.521,6.521,0,0,1,1.946,4.734V69.732c0,.54-.306.808-.917.808-.588,0-.881-.268-.881-.808V59.714a4.927,4.927,0,0,0-1.469-3.486,4.639,4.639,0,0,0-6.752-.165,4.827,4.827,0,0,0-1.432,3.651V69.732a.747.747,0,0,1-.275.551.91.91,0,0,1-.642.257.883.883,0,0,1-.624-.238A.749.749,0,0,1,112.869,69.732Z" transform="translate(-0.827 -0.938)"/><path class="cls-1" d="M130.119,63.971V59.714a6.506,6.506,0,0,1,1.944-4.753A6.328,6.328,0,0,1,136.724,53a5.469,5.469,0,0,1,2.954.789,5.388,5.388,0,0,1,1.927,2V43.2a.7.7,0,0,1,.257-.551.982.982,0,0,1,.661-.22.933.933,0,0,1,.624.22.7.7,0,0,1,.257.551V69.732a.752.752,0,0,1-.257.57.886.886,0,0,1-.624.238.846.846,0,0,1-.624-.257.767.767,0,0,1-.257-.551v-1.76a5.1,5.1,0,0,1-2,1.981,5.813,5.813,0,0,1-2.991.808,6.133,6.133,0,0,1-4.57-2.056A6.655,6.655,0,0,1,130.119,63.971Zm1.8,0a5.034,5.034,0,0,0,1.468,3.542,4.552,4.552,0,0,0,3.413,1.559,4.72,4.72,0,0,0,3.34-1.394,3.779,3.779,0,0,0,1.468-2.459v-5.5a4.823,4.823,0,0,0-1.449-3.634,4.661,4.661,0,0,0-3.322-1.394,4.612,4.612,0,0,0-3.45,1.542,4.926,4.926,0,0,0-1.468,3.486Z" transform="translate(-0.827 -0.938)"/><path class="cls-1" d="M147.587,63.971V59.6a6.3,6.3,0,0,1,1.982-4.662A6.57,6.57,0,0,1,154.339,53a6.488,6.488,0,0,1,4.672,1.908,6.324,6.324,0,0,1,1.972,4.735,4.459,4.459,0,0,1-.238,1.6,1.554,1.554,0,0,1-.75.863,2.975,2.975,0,0,1-.933.311,9.724,9.724,0,0,1-1.19.055h-8.487v1.542a4.611,4.611,0,0,0,1.652,3.707,6.368,6.368,0,0,0,4.257,1.394,6.015,6.015,0,0,0,2.234-.367,5.927,5.927,0,0,0,1.391-.734,1.436,1.436,0,0,1,.734-.367.743.743,0,0,1,.575.294.91.91,0,0,1,.252.587q0,.7-1.516,1.468a8.2,8.2,0,0,1-3.744.771,8.029,8.029,0,0,1-5.5-1.872A6.233,6.233,0,0,1,147.587,63.971Zm1.8-3.009H157.2a3.5,3.5,0,0,0,1.651-.257,1.178,1.178,0,0,0,.4-1.064,5.063,5.063,0,0,0-1.394-3.487,4.548,4.548,0,0,0-3.524-1.542,4.8,4.8,0,0,0-3.5,1.432,4.632,4.632,0,0,0-1.45,3.413Z" transform="translate(-0.827 -0.938)"/><path class="cls-1" d="M164.8,69.732V53.952q0-.733.881-.734a.973.973,0,0,1,.623.2.643.643,0,0,1,.258.532v1.835a5.266,5.266,0,0,1,1.908-1.982,5.547,5.547,0,0,1,3.01-.807A6.256,6.256,0,0,1,176.1,54.98a6.52,6.52,0,0,1,1.945,4.734V69.732c0,.54-.306.808-.918.808-.586,0-.879-.268-.879-.808V59.714a4.926,4.926,0,0,0-1.468-3.486,4.641,4.641,0,0,0-6.754-.165,4.833,4.833,0,0,0-1.43,3.651V69.732a.75.75,0,0,1-.275.551.912.912,0,0,1-.643.257.888.888,0,0,1-.625-.238A.755.755,0,0,1,164.8,69.732Z" transform="translate(-0.827 -0.938)"/><path class="cls-1" d="M207.057,12.9l.079,3.682,3.526,1.063-3.477,1.212.078,3.682-2.227-2.933-3.477,1.213,2.1-3.025-2.227-2.932,3.525,1.063,2.1-3.025m0-1a1,1,0,0,0-.821.43l-1.686,2.428-2.83-.853a.986.986,0,0,0-.288-.043,1,1,0,0,0-.8,1.605l1.788,2.354-1.685,2.428a1,1,0,0,0,1.15,1.514l2.791-.973,1.788,2.353a1,1,0,0,0,.8.4,1.015,1.015,0,0,0,.329-.056,1,1,0,0,0,.67-.966l-.063-2.955,2.791-.973a1,1,0,0,0-.041-1.9l-2.83-.853-.063-2.955a1,1,0,0,0-1-.979Z" transform="translate(-0.827 -0.938)"/><path class="cls-1" d="M215.464,19.955l2.954,2.2,3-2.131-1.177,3.489,2.955,2.2-3.682-.041-1.177,3.489-1.1-3.515-3.682-.041,3-2.131-1.1-3.514m0-1a1,1,0,0,0-.955,1.3l.882,2.821-2.411,1.711a1,1,0,0,0,.568,1.815l2.956.033.881,2.821a1,1,0,0,0,.944.7h.011a1,1,0,0,0,.947-.68l.945-2.8,2.956.033h.011a1,1,0,0,0,.6-1.8l-2.372-1.764.945-2.8a1,1,0,0,0-1.526-1.135l-2.411,1.71-2.372-1.764a1,1,0,0,0-.6-.2Z" transform="translate(-0.827 -0.938)"/><path class="cls-1" d="M226.537,29.21l2.05,3.059,3.543-1-2.276,2.895,2.05,3.059-3.456-1.27-2.276,2.9.139-3.68L222.855,33.9,226.4,32.89l.139-3.68m0-1a1.027,1.027,0,0,0-.273.038,1,1,0,0,0-.726.925l-.112,2.953-2.844.806a1,1,0,0,0-.072,1.9l2.775,1.019-.112,2.954a1,1,0,0,0,1.785.656l1.827-2.324,2.774,1.019a1,1,0,0,0,1.131-.32,1,1,0,0,0,.045-1.175l-1.646-2.455,1.827-2.324a1,1,0,0,0-.786-1.618.983.983,0,0,0-.273.038l-2.844.806-1.645-2.455a1,1,0,0,0-.831-.444Z" transform="translate(-0.827 -0.938)"/><path class="cls-1" d="M233.9,41.792l.819,3.59,3.667.331L235.223,47.6l.819,3.59-2.773-2.423-3.161,1.888,1.448-3.386-2.773-2.423,3.667.331,1.448-3.386m0-1a1,1,0,0,0-.919.607l-1.162,2.718-2.944-.266c-.03,0-.06,0-.09,0a1,1,0,0,0-.658,1.753l2.225,1.945-1.162,2.718a1,1,0,0,0,1.432,1.251L233.158,50l2.226,1.945a1,1,0,0,0,1.633-.975l-.658-2.882,2.538-1.515a1,1,0,0,0-.423-1.855l-2.943-.265-.658-2.882a1,1,0,0,0-.885-.774c-.03,0-.06,0-.09,0Z" transform="translate(-0.827 -0.938)"/><path class="cls-1" d="M201.6,70.709c-.563,0-1.657-.124-3.908-.379a20.746,20.746,0,0,0-5.215.193c-1,.139-1.343.187-1.564-.166a.606.606,0,0,1,.019-.6,5.284,5.284,0,0,1,2.017-1.126.23.23,0,0,1,.01-.035c.15-.433.647-.669,1.663-.791a6.463,6.463,0,0,1,3.338.672l2.961-3.424c-5.068-1.075-7.52-6.486-7.936-10.062a11.2,11.2,0,0,0-1.865-5.47,2.52,2.52,0,0,0-.195-.236.513.513,0,0,1-.1-.149,10.128,10.128,0,0,0-3.612-1.716.5.5,0,0,1,.048-.981,9.773,9.773,0,0,1,5.315.809c6.52-3.96,11.375,1.845,12.615,3.559a11.513,11.513,0,0,1,4.478,1.176l.319.067a30.2,30.2,0,0,1,3.774-11.887.5.5,0,0,1,.3-.214,2.1,2.1,0,0,1,1.727.383,2.746,2.746,0,0,1,.783,2.31,4.464,4.464,0,0,1,.9,2.463,4.409,4.409,0,0,1,.677,2.725c-.027,1.439-1.332,3.477-3.885,6.059a14.475,14.475,0,0,1,.086,1.986c.557.338,1.126.7,1.711,1.094a.5.5,0,0,1,.2.567.539.539,0,0,1-.491.348s-.646.027-1.651-.02a6.1,6.1,0,0,1-.707,1.829,20.966,20.966,0,0,1-2.583,2.9.524.524,0,0,1-.088.067c-.03.018-.686.406-1.7.883l-1.538,4.121c1.533.866,1.859,1.518,1.91,1.648a.5.5,0,0,1-.671.64,12.338,12.338,0,0,0-6.221-.64c-.414.035-.793.066-1.137.08.637.2.729.3.785.351a.607.607,0,0,1,.124.633C202.191,70.6,202.137,70.709,201.6,70.709Zm-7.619-1.758a.494.494,0,0,1-.014.132.5.5,0,0,1-.168.269,19.579,19.579,0,0,1,3.533-.062,5.346,5.346,0,0,0-2.59-.494A3.545,3.545,0,0,0,193.984,68.951Zm5.767,0,.152.038a.573.573,0,0,1-.026-.138c0-.012,0-.025,0-.036Zm-5.9-.323h0Zm10.925-.428a13.216,13.216,0,0,1,1.835.121.349.349,0,0,0-.664-.123,16.789,16.789,0,0,0-2.447-.17.581.581,0,0,1,.02.109.522.522,0,0,1,0,.1C203.914,68.213,204.336,68.195,204.773,68.195Zm-1.668-2.959-2.7,2.991a7.025,7.025,0,0,1,.879-.241c-.063-.5.5-.69.712-.761a10.536,10.536,0,0,1,3.7-.074l1.022-2.658a13.409,13.409,0,0,1-3.4.739C203.245,65.236,203.172,65.236,203.105,65.236ZM191.793,48.755c.037.045.08.1.128.162a12.215,12.215,0,0,1,2.061,5.958c.388,3.332,2.891,8.81,7.961,9.325a.5.5,0,0,1,.414.313.225.225,0,0,1,.014.044l.143-.158a.5.5,0,0,1,.36-.165h.186a1.539,1.539,0,0,0,.192,0,13.878,13.878,0,0,0,4.141-1.059.5.5,0,0,1,.633.238l.152-.409a.5.5,0,0,1,.26-.279c.91-.419,1.566-.791,1.743-.893a19.97,19.97,0,0,0,2.377-2.659,5.467,5.467,0,0,0,.658-1.9.5.5,0,0,1,.489-.414h.348c-.157-.1-.313-.192-.469-.285a.5.5,0,0,1-.242-.454,13.429,13.429,0,0,0-.1-2.351.5.5,0,0,1,.142-.419c2.406-2.406,3.743-4.374,3.764-5.543a3.347,3.347,0,0,0-.549-2.2.5.5,0,0,1-.118-.3l.5-.053-.5-.049a3.305,3.305,0,0,0-.772-2.03.5.5,0,0,1-.149-.39,2.05,2.05,0,0,0-.409-1.691.986.986,0,0,0-.669-.2,31.045,31.045,0,0,0-3.568,11.806.5.5,0,0,1-.2.35.515.515,0,0,1-.4.085l-.912-.191a.535.535,0,0,1-.115-.038,10.4,10.4,0,0,0-4.37-1.111.5.5,0,0,1-.406-.216c-.863-1.254-5.491-7.307-11.663-3.331a.484.484,0,0,1-.379.117.491.491,0,0,1-.342-.2l-.029-.04a8.894,8.894,0,0,0-1.853-.592,6.517,6.517,0,0,1,1.413,1.011A.488.488,0,0,1,191.793,48.755Z" transform="translate(-0.827 -0.938)"/><path class="cls-1" d="M160.71,48.649c-.05,0-.092,0-.131-.007a.723.723,0,0,1-.5-.26c-.235-.286-.267-.646.166-1.3-2.361,1.186-3.174,1.065-3.6.769a.886.886,0,0,1-.367-.883.5.5,0,0,1,.2-.31c.5-.365,12.3-8.883,14.962-10.582q.528-.674,1.079-1.306c-.622.17-1.275.264-1.579-.168a7.62,7.62,0,0,1-2.4.756c-.665.094-1.1-.053-1.289-.441-.289-.59.287-1.456.977-2.208a.849.849,0,0,1-.142-.241c-.211-.564.223-1.295.7-1.877a1.046,1.046,0,0,1-.325-.4,2.063,2.063,0,0,1,.294-1.749.906.906,0,0,1-.243-.412,1.814,1.814,0,0,1,.487-1.452,1,1,0,0,1-.366-.476,1.868,1.868,0,0,1,.4-1.594,1.2,1.2,0,0,1-.779-.769,2.145,2.145,0,0,1,.305-1.6,1.137,1.137,0,0,1-.2-.267,2.337,2.337,0,0,1-.046-1.63,1.408,1.408,0,0,1-.608-.462,2.857,2.857,0,0,1-.316-2.1c-.848-.395-1.135-1.209-.851-2.426.014-.064.028-.117.033-.156a.469.469,0,0,1,.183-.368.475.475,0,0,1,.348-.122c-1.8-.948-2.705-1.843-2.743-2.712a1.429,1.429,0,0,1,.785-1.288.5.5,0,0,1,.167-.05,2.274,2.274,0,0,1-.532-1.21,3.007,3.007,0,0,1,.717-2.126.5.5,0,0,1,.64-.09l1.453.915a2.476,2.476,0,0,1-.347-2.024,1.612,1.612,0,0,1,1.069-.943.5.5,0,0,1,.457.074c.1.074,10.008,7.476,15.231,11.437a15.4,15.4,0,0,1,1.378.968c.627.489,1.2.964,1.71,1.411,3.686,3.254,3.243,4.623,2.347,5.96a1.748,1.748,0,0,0-.365.756,5.044,5.044,0,0,0,.12,1.656,10.532,10.532,0,0,1,1.711.393c3.191-.7,5.547-.348,7,1.061,1.855,1.792,1.6,4.659,1.489,5.45a8.739,8.739,0,0,1,1.276,4.308.5.5,0,0,1-.388.488.508.508,0,0,1-.562-.27c-.011-.025-1.217-2.482-2.969-3.129l-.164-.023c-1.853-.26-2.348-.33-10.624,5.64-4.534,3.269-9.241,2.929-12.99-.914-5.079,4.879-7.985,7.345-8.7,7.237a.661.661,0,0,1-.42-.251.528.528,0,0,1-.11-.372C161.693,48.482,161.034,48.649,160.71,48.649Zm2.119-4.114a.5.5,0,0,1,.341.866,17.824,17.824,0,0,0-1.959,2.04,31.91,31.91,0,0,0,4.739-3.5.5.5,0,0,1,.693.717c-.176.2-.336.382-.481.55,1.667-1.407,4.131-3.669,6.392-5.847a.505.505,0,0,1,.778-.077c2.013,2.229,6.254,5.344,12.038,1.173,8.314-6,9.083-6.136,11.349-5.819l.211.029a.664.664,0,0,1,.1.023,5.518,5.518,0,0,1,2.226,1.63,8.076,8.076,0,0,0-.8-1.676.5.5,0,0,1-.079-.375c.006-.031.561-3.08-1.172-4.749-1.222-1.177-3.316-1.436-6.225-.77a.5.5,0,0,1-.291-.021,9.427,9.427,0,0,0-1.934-.43.5.5,0,0,1-.4-.3,5.366,5.366,0,0,1-.288-2.366,2.545,2.545,0,0,1,.532-1.25c.566-.843,1.149-1.716-2.148-4.63-.5-.442-1.054-.9-1.692-1.394a15.186,15.186,0,0,0-1.329-.934c-4.812-3.648-13.515-10.153-15.035-11.289a.465.465,0,0,0-.219.243c-.062.169-.092.58.418,1.428.179.3,1.072,1.223,5.043,4.062a.5.5,0,0,1-.557.83L166,8.245a1.7,1.7,0,0,0-.237,1,1.644,1.644,0,0,0,.784,1.108c.511.357,2.525,1.489,9.215,4.85a.5.5,0,0,1-.43.9l-9.9-4.463a.326.326,0,0,0-.08.223c.012.188.28,1.214,4.5,2.9.617.247,1.151.461,1,.974-.159.54-.563.462-2.52.087-.274-.053-.61-.118-.863-.161-.137.682-.052,1.045.617,1.212a.5.5,0,0,1,.361.62,2.472,2.472,0,0,0,.051,1.683.52.52,0,0,0,.467.182.5.5,0,0,1,.461.694,2.217,2.217,0,0,0-.191,1.344c.013.024.029.054.119.07a.5.5,0,0,1,.309.8c-.248.326-.545.915-.463,1.172.008.024.03.091.213.147.291.09.519.161.693.226l.047.013v0c.4.156.479.3.382.627a.45.45,0,0,1-.471.345h0c-.326.4-.54.841-.491.961h0s.068.073.351.1a.5.5,0,0,1,.288.861,2.72,2.72,0,0,0-.731,1.024c.015,0,.048.013.1.025a.5.5,0,0,1,.288.787c-.33.443-.578,1.042-.5,1.21.011.024.106.078.329.091a.5.5,0,0,1,.324.853,4.579,4.579,0,0,0-.979,1.342l.059.005a.5.5,0,0,1,.314.859,6.789,6.789,0,0,0-1.19,1.463c.046,0,.1-.008.172-.018a6.157,6.157,0,0,0,3.033-1.274.5.5,0,0,1,.692.722l-.029.029c.07-.016.149-.037.237-.062a11.319,11.319,0,0,0,2.046-.94.5.5,0,0,1,.586.8,29.856,29.856,0,0,0-2.791,3.117.528.528,0,0,1-.128.117c-2.16,1.358-11.778,8.281-14.35,10.136a17.329,17.329,0,0,0,4.879-2.4A.5.5,0,0,1,162.829,44.535Z" transform="translate(-0.827 -0.938)"/><path class="cls-1" d="M244.221,70.567a.5.5,0,0,1-.479-.642A52.946,52.946,0,0,0,176.267,4.644a.5.5,0,1,1-.316-.949A53.952,53.952,0,0,1,244.7,70.21.5.5,0,0,1,244.221,70.567Z" transform="translate(-0.827 -0.938)"/><path class="cls-1" d="M142.763,37.215a.5.5,0,0,1-.471-.67,53.978,53.978,0,0,1,16.851-23.639.5.5,0,0,1,.629.778,52.954,52.954,0,0,0-16.538,23.2A.5.5,0,0,1,142.763,37.215Z" transform="translate(-0.827 -0.938)"/></svg>